<svg width="52" height="52" viewBox="0 0 52 52" fill="none" xmlns="http://www.w3.org/2000/svg">
<path fill-rule="evenodd" clip-rule="evenodd" d="M9.80557 16.7983C9.09998 18.737 9.09998 21.158 9.09998 26C9.09998 30.842 9.09998 33.263 9.80557 35.2016C10.9884 38.4515 13.5485 41.0115 16.7983 42.1944C18.7369 42.9 21.158 42.9 26 42.9C30.842 42.9 33.263 42.9 35.2016 42.1944C38.4515 41.0115 41.0115 38.4515 42.1944 35.2016C42.9 33.263 42.9 30.842 42.9 26C42.9 21.158 42.9 18.737 42.1944 16.7983C41.0115 13.5485 38.4515 10.9884 35.2016 9.80557C33.263 9.09998 30.842 9.09998 26 9.09998C21.158 9.09998 18.7369 9.09998 16.7983 9.80557C13.5485 10.9884 10.9884 13.5485 9.80557 16.7983ZM27.8909 28.55C28.413 28.55 28.8363 28.9753 28.8363 29.5V37.1C28.8363 37.6246 28.413 38.05 27.8909 38.05C27.3687 38.05 26.9454 37.6246 26.9454 37.1V29.5C26.9454 28.9753 27.3687 28.55 27.8909 28.55ZM26 18.1C22.3449 18.1 19.3818 21.0773 19.3818 24.75V28.55C19.3818 29.0746 19.8051 29.5 20.3272 29.5C20.8494 29.5 21.2727 29.0746 21.2727 28.55V24.75C21.2727 22.1266 23.3892 20 26 20C28.6108 20 30.7272 22.1266 30.7272 24.75V35.2C30.7272 35.7246 31.1505 36.15 31.6727 36.15C32.1949 36.15 32.6182 35.7246 32.6182 35.2V24.75C32.6182 21.0773 29.6551 18.1 26 18.1ZM23.1636 24.75C23.1636 23.176 24.4335 21.9 26 21.9C27.5665 21.9 28.8363 23.176 28.8363 24.75C28.8363 25.2746 28.413 25.7 27.8909 25.7C27.3687 25.7 26.9454 25.2746 26.9454 24.75C26.9454 24.2253 26.5221 23.8 26 23.8C25.4778 23.8 25.0545 24.2253 25.0545 24.75V38.05C25.0545 38.5746 24.6312 39 24.1091 39C23.5869 39 23.1636 38.5746 23.1636 38.05V24.75ZM21.2727 32.35C21.2727 31.8253 20.8494 31.4 20.3272 31.4C19.8051 31.4 19.3818 31.8253 19.3818 32.35V36.15C19.3818 36.6746 19.8051 37.1 20.3272 37.1C20.8494 37.1 21.2727 36.6746 21.2727 36.15V32.35ZM16.5454 23.8C17.0676 23.8 17.4909 24.2253 17.4909 24.75V34.25C17.4909 34.7746 17.0676 35.2 16.5454 35.2C16.0233 35.2 15.6 34.7746 15.6 34.25V24.75C15.6 24.2253 16.0233 23.8 16.5454 23.8ZM26 14.3C23.2623 14.3 20.7699 15.3641 18.9135 17.1014C18.5314 17.459 18.5101 18.0601 18.866 18.444C19.2219 18.828 19.8201 18.8494 20.2022 18.4918C21.7225 17.069 23.7592 16.2 26 16.2C29.9636 16.2 33.2964 18.9239 34.241 22.6118C34.3712 23.1199 34.8866 23.4258 35.3923 23.295C35.898 23.1642 36.2024 22.6463 36.0723 22.1382C34.9178 17.6312 30.8473 14.3 26 14.3ZM35.4545 26.65C35.9767 26.65 36.4 27.0753 36.4 27.6V32.35C36.4 32.8746 35.9767 33.3 35.4545 33.3C34.9324 33.3 34.5091 32.8746 34.5091 32.35V27.6C34.5091 27.0753 34.9324 26.65 35.4545 26.65Z" fill="#E4C573"/>
</svg>
